<?xml version="1.0" encoding="utf-8"?>
<!-- Generator: Adobe Illustrator 22.0.0, SVG Export Plug-In . SVG Version: 6.00 Build 0)  -->
<svg version="1.1" id="Layer_1" xmlns="http://www.w3.org/2000/svg" xmlns:xlink="http://www.w3.org/1999/xlink" x="0px" y="0px"
	 viewBox="0 0 1920 960" style="enable-background:new 0 0 1920 960;" xml:space="preserve">
<style type="text/css">
	.st0{opacity:0.5;fill:#FDFF8B;enable-background:new    ;}
	.st1{enable-background:new    ;}
	.st2{clip-path:url(#SVGID_2_);enable-background:new    ;}
	.st3{fill:#3B7479;}
	.st4{fill:#3D787D;}
	.st5{fill:#397074;}
	.st6{fill:#376C70;}
	.st7{fill:#35686C;}
	.st8{fill:#5DB8BF;}
	.st9{opacity:0.24;}
	.st10{clip-path:url(#SVGID_4_);enable-background:new    ;}
	.st11{fill:none;stroke:#65C8D0;stroke-width:5.363;stroke-miterlimit:10;}
	.st12{fill:#006837;}
	.st13{fill:#ED1C24;}
	.st14{clip-path:url(#SVGID_6_);enable-background:new    ;}
	.st15{clip-path:url(#SVGID_8_);enable-background:new    ;}
	.st16{fill:none;stroke:#65C8D0;stroke-width:6.6163;stroke-miterlimit:10;}
	.st17{fill:none;stroke:#FFFFFF;stroke-width:5.5136;stroke-miterlimit:10;}
	.st18{fill:none;stroke:#FFFFFF;stroke-width:4.4238;stroke-miterlimit:10;}
	.st19{fill:none;stroke:url(#SVGID_9_);stroke-width:5.5136;stroke-miterlimit:10;}
	.st20{fill:none;stroke:url(#SVGID_10_);stroke-width:5.5136;stroke-miterlimit:10;}
	.st21{fill:none;stroke:url(#SVGID_11_);stroke-width:5.5136;stroke-miterlimit:10;}
	.st22{fill:none;stroke:url(#SVGID_12_);stroke-width:5.5136;stroke-miterlimit:10;}
	.st23{fill:none;stroke:url(#SVGID_13_);stroke-width:5.5136;stroke-miterlimit:10;}
	.st24{fill:none;stroke:url(#SVGID_14_);stroke-width:5.5136;stroke-miterlimit:10;}
	.st25{fill:none;stroke:url(#SVGID_15_);stroke-width:5.5136;stroke-miterlimit:10;}
	.st26{clip-path:url(#SVGID_17_);enable-background:new    ;}
	.st27{clip-path:url(#SVGID_19_);enable-background:new    ;}
	.st28{fill:none;stroke:#65C8D0;stroke-width:7.1229;stroke-miterlimit:10;}
	.st29{fill:none;stroke:#65C8D0;stroke-width:3.8014;stroke-miterlimit:10;}
	.st30{fill:none;stroke:#4D4D4D;stroke-width:3.8014;stroke-miterlimit:10;}
	.st31{fill:#4D4D4D;stroke:#65C8D0;stroke-width:4.3667;stroke-miterlimit:10;}
	.st32{fill:#4D4D4D;stroke:#65C8D0;stroke-width:3.8014;stroke-miterlimit:10;}
	.st33{opacity:0.36;fill:#65C8D0;stroke:#FFFFFF;stroke-width:4.3667;stroke-miterlimit:10;enable-background:new    ;}
	.st34{fill:none;stroke:#4D4D4D;stroke-width:6;stroke-miterlimit:10;}
	.st35{clip-path:url(#SVGID_21_);enable-background:new    ;}
	.st36{clip-path:url(#SVGID_23_);enable-background:new    ;}
	.st37{fill:none;stroke:#65C8D0;stroke-width:7.0275;stroke-miterlimit:10;}
	.st38{fill:none;stroke:#FFFFFF;stroke-width:4.5476;stroke-miterlimit:10;}
	.st39{fill:none;stroke:#000000;stroke-width:4.5476;stroke-miterlimit:10;}
	.st40{fill:none;stroke:#0000FF;stroke-width:4.5476;stroke-miterlimit:10;}
	.st41{fill:none;stroke:#C1272D;stroke-width:4.5476;stroke-miterlimit:10;}
	.st42{fill:none;stroke:#009245;stroke-width:4.5476;stroke-miterlimit:10;}
	.st43{fill:none;stroke:#4D4D4D;stroke-width:4.5476;stroke-miterlimit:10;}
	.st44{fill:none;stroke:#603813;stroke-width:2.8784;stroke-miterlimit:10;}
	.st45{fill:none;stroke:#333333;stroke-width:1.9256;stroke-miterlimit:10;}
	.st46{fill:none;stroke:#FBB03B;stroke-width:1.9256;stroke-miterlimit:10;}
	.st47{fill:#3FA9F5;}
	.st48{fill:#7AC943;}
	.st49{fill:#FF931E;}
	.st50{fill:#FFFFFF;}
	.st51{fill:none;}
</style>
<g id="Layer_1_1_">
	<rect class="st0" width="1920" height="960"/>
</g>
<g id="Layer_2_1_">
	<g>
		<g>
			<g>
				<g>
					<g class="st1">
						<g class="st1">
							<g>
								<g>
									<defs>
										<path id="SVGID_1_" d="M691,653.9l0.2,27.5c0.3,36.3-12.7,73.1-40.2,104.8c-68.6,79.4-201.1,97.5-295.9,40.5
											c-56.9-34.2-87.4-87.7-87.8-142.1l-0.2-27.5c0.5,54.4,30.9,107.9,87.8,142.1c94.9,57,227.4,38.9,295.9-40.5
											C678.3,727,691.3,690.2,691,653.9z"/>
									</defs>
									<clipPath id="SVGID_2_">
										<use xlink:href="#SVGID_1_"  style="overflow:visible;"/>
									</clipPath>
									<g class="st2">
										<path class="st3" d="M691,653.9l0.2,27.5c0,1.3,0,2.6,0,3.8l-0.2-27.5C691,656.5,691,655.2,691,653.9"/>
										<path class="st4" d="M691,657.8l0.2,27.5c-0.6,35.1-13.7,70.4-40.2,101c-11.4,13.2-24.6,24.7-39,34.5l-0.2-27.5
											c14.5-9.7,27.6-21.3,39-34.5C677.3,728.1,690.4,692.8,691,657.8"/>
										<path class="st3" d="M611.8,793.2l0.2,27.5c-12.8,8.6-26.6,15.9-41.1,21.7l-0.2-27.5C585.2,809.1,599,801.8,611.8,793.2"
											/>
										<path class="st5" d="M570.7,814.9l0.2,27.5c-13.2,5.3-27,9.5-41.2,12.4l-0.2-27.5C543.6,824.4,557.4,820.2,570.7,814.9"/>
										<path class="st6" d="M529.5,827.3l0.2,27.5c-15.5,3.2-31.5,5-47.5,5.2l-0.2-27.5C498,832.3,514,830.5,529.5,827.3"/>
										<path class="st7" d="M482,832.5l0.2,27.5c-44,0.7-88.7-10.1-127.1-33.2c-56.9-34.2-87.4-87.7-87.8-142.1l-0.2-27.5
											c0.5,54.4,30.9,107.9,87.8,142.1C393.4,822.4,438,833.1,482,832.5"/>
									</g>
								</g>
							</g>
						</g>
						<g>
							<path class="st8" d="M603.2,511.8c94.9,57,116.2,167.6,47.6,246.9c-68.6,79.4-201.1,97.5-295.9,40.5
								c-94.9-57-116.2-167.6-47.6-247C375.8,473,508.3,454.8,603.2,511.8z"/>
						</g>
					</g>
				</g>
			</g>
			<g class="st9">
				<g>
					<g class="st1">
						<g class="st1">
							<g>
								<g>
									<defs>
										<path id="SVGID_3_" d="M704.5,679.4l0.2,27.5c0.3,38.6-13.5,77.7-42.7,111.5c-72.9,84.4-213.8,103.7-314.7,43.1
											c-60.5-36.4-92.9-93.2-93.4-151.1l-0.2-27.5c0.5,57.9,32.9,114.8,93.4,151.1c100.9,60.6,241.8,41.3,314.7-43.1
											C690.9,757.1,704.8,718.1,704.5,679.4z"/>
									</defs>
									<clipPath id="SVGID_4_">
										<use xlink:href="#SVGID_3_"  style="overflow:visible;"/>
									</clipPath>
									<g class="st10">
										<path class="st3" d="M704.5,679.4l0.2,27.5c0,1.4,0,2.7,0,4.1l-0.2-27.5C704.5,682.1,704.5,680.8,704.5,679.4"/>
										<path class="st4" d="M704.4,683.5l0.2,27.5c-0.7,37.3-14.6,74.8-42.7,107.4c-12.1,14-26.1,26.3-41.5,36.6l-0.2-27.5
											c15.4-10.4,29.4-22.6,41.5-36.6C689.9,758.3,703.8,720.8,704.4,683.5"/>
										<path class="st3" d="M620.2,827.6l0.2,27.5c-13.6,9.2-28.3,16.9-43.7,23.1l-0.2-27.5C591.9,844.4,606.6,836.7,620.2,827.6
											"/>
										<path class="st5" d="M576.5,850.6l0.2,27.5c-14.1,5.7-28.8,10.1-43.8,13.2l-0.2-27.5C547.7,860.7,562.4,856.3,576.5,850.6
											"/>
										<path class="st6" d="M532.7,863.8l0.2,27.5c-16.5,3.4-33.5,5.3-50.5,5.5l-0.2-27.5C499.2,869.1,516.2,867.2,532.7,863.8"
											/>
										<path class="st7" d="M482.2,869.3l0.2,27.5c-46.8,0.7-94.3-10.7-135.2-35.3c-60.5-36.4-92.9-93.2-93.4-151.1l-0.2-27.5
											c0.5,57.9,32.9,114.8,93.4,151.1C387.9,858.6,435.4,870,482.2,869.3"/>
									</g>
								</g>
							</g>
						</g>
						<g>
							<path class="st8" d="M611.1,528.3c100.9,60.6,123.6,178.2,50.6,262.6S447.9,894.6,347,834s-123.6-178.2-50.7-262.6
								S510.2,467.7,611.1,528.3z"/>
						</g>
					</g>
				</g>
			</g>
		</g>
		<g>
			<path class="st11" d="M634.4,687c-27.6,45.6-63.5,122.7-154.4,64.7c-75-47.9-141-32.6-154.3-64.7c-29-69.7-30.3-94.9,154.4-64.7
				c46.6,7.6,45.2,10.3,86.3,11.1C655.8,635,651.7,658.4,634.4,687z"/>
			<ellipse class="st11" cx="541.4" cy="716.8" rx="15.3" ry="8.4"/>
			<line class="st11" x1="541.4" y1="716.8" x2="541.4" y2="525.6"/>
			<polygon class="st11" points="540.3,588.5 499.1,560.3 540.3,532.1 			"/>
			<g>
				<g>
					<path class="st12" d="M336.2,657.3c11-11.7,25.5-19.5,41.7-20.6c2.3-0.2,2.3-3.7,0-3.5c-17.1,1.1-32.5,9.2-44.2,21.7
						C332.1,656.5,334.6,659,336.2,657.3L336.2,657.3z"/>
				</g>
			</g>
			<g>
				<g>
					<path class="st12" d="M349.2,663.6c16.1-10.3,34.2-16.1,53.4-16.2c2.3,0,2.3-3.5,0-3.5c-19.7,0.1-38.6,6.1-55.2,16.7
						C345.5,661.8,347.3,664.8,349.2,663.6L349.2,663.6z"/>
				</g>
			</g>
			<g>
				<g>
					<path class="st12" d="M373.4,676.5c18.1-14.2,38.9-24.3,61.5-28.9c2.2-0.5,1.3-3.9-0.9-3.4c-23.2,4.8-44.5,15.2-63,29.8
						C369.1,675.4,371.6,677.9,373.4,676.5L373.4,676.5z"/>
				</g>
			</g>
			<g>
				<g>
					<path class="st12" d="M396.4,687.6c24.7-18.1,52.9-30.8,83.1-36.2c2.2-0.4,1.3-3.8-0.9-3.4c-30.5,5.5-59.1,18.3-84,36.6
						C392.8,685.9,394.5,689,396.4,687.6L396.4,687.6z"/>
				</g>
			</g>
			<g>
				<g>
					<path class="st12" d="M428.5,695.7c26.4-21.4,58.9-34.3,93-34.8c2.3,0,2.3-3.6,0-3.5c-35.1,0.5-68.3,13.9-95.5,35.9
						C424.2,694.6,426.7,697.1,428.5,695.7L428.5,695.7z"/>
				</g>
			</g>
			<g>
				<g>
					<path class="st12" d="M453.7,704.5c19.6-19.3,43.7-33.5,70.7-39.6c2.2-0.5,1.3-3.9-0.9-3.4c-27.5,6.3-52.2,20.8-72.2,40.6
						C449.6,703.6,452.1,706.1,453.7,704.5L453.7,704.5z"/>
				</g>
			</g>
			<g>
				<g>
					<path class="st12" d="M476.4,711.2c16.4-11.5,34-21.2,52.7-28.7c2.1-0.8,1.2-4.3-0.9-3.4c-19,7.6-36.9,17.3-53.6,29
						C472.7,709.5,474.5,712.5,476.4,711.2L476.4,711.2z"/>
				</g>
			</g>
			<g>
				<g>
					<path class="st12" d="M550.5,673.5c9.6-7,20.1-12.5,31.5-16.1c2.2-0.7,1.2-4.1-0.9-3.4c-11.7,3.7-22.5,9.2-32.4,16.4
						C546.9,671.7,548.6,674.8,550.5,673.5L550.5,673.5z"/>
				</g>
			</g>
			<g>
				<g>
					<path class="st12" d="M487.9,723.3c15.7-9.7,31.5-19.1,47.5-28.3c2-1.1,0.2-4.2-1.8-3.1c-16,9.2-31.8,18.6-47.5,28.3
						C484.2,721.5,486,724.5,487.9,723.3L487.9,723.3z"/>
				</g>
			</g>
			<g>
				<g>
					<path class="st12" d="M548.1,688.6c16.2-8.2,32.3-16.3,48.5-24.5c2-1,0.2-4.1-1.8-3.1c-16.2,8.2-32.3,16.3-48.5,24.5
						C544.3,686.6,546.1,689.6,548.1,688.6L548.1,688.6z"/>
				</g>
			</g>
			<g>
				<g>
					<path class="st12" d="M514.1,750.4c7.3-4.2,15-7.3,23.2-9.3c2.2-0.5,1.3-3.9-0.9-3.4c-8.5,2-16.5,5.3-24,9.6
						C510.3,748.4,512.1,751.5,514.1,750.4L514.1,750.4z"/>
				</g>
			</g>
			<g>
				<g>
					<path class="st12" d="M577.4,701.2c13.2-9.3,27.2-17.1,42.1-23.3c2.1-0.9,1.2-4.3-0.9-3.4c-15.2,6.3-29.5,14.3-42.9,23.7
						C573.8,699.4,575.6,702.5,577.4,701.2L577.4,701.2z"/>
				</g>
			</g>
			<g>
				<g>
					<path class="st12" d="M549.3,757.2c12.2-8.4,24.3-16.7,36.5-25.1c1.9-1.3,0.1-4.3-1.8-3.1c-12.2,8.4-24.3,16.7-36.5,25.1
						C545.6,755.4,547.4,758.5,549.3,757.2L549.3,757.2z"/>
				</g>
			</g>
			<g>
				<g>
					<path class="st12" d="M566.2,727.7c11.9-9.8,24.5-18.9,37.6-27c1.9-1.2,0.2-4.3-1.8-3.1c-13.4,8.3-26.1,17.6-38.3,27.6
						C561.9,726.7,564.4,729.2,566.2,727.7L566.2,727.7z"/>
				</g>
			</g>
			<g>
				<g>
					<path class="st13" d="M528.3,550.7c0.5,0,1.1,0,1.6,0c0.9,0,1.8-0.8,1.8-1.8s-0.8-1.8-1.8-1.8c-0.5,0-1.1,0-1.6,0
						c-0.9,0-1.8,0.8-1.8,1.8C526.6,549.9,527.4,550.7,528.3,550.7L528.3,550.7z"/>
				</g>
			</g>
			<g>
				<g>
					<path class="st13" d="M520.2,559.8c3.4-0.3,6.9-0.7,10.3-1c2.2-0.2,2.3-3.8,0-3.5c-3.4,0.3-6.9,0.7-10.3,1
						C518,556.5,518,560,520.2,559.8L520.2,559.8z"/>
				</g>
			</g>
			<g>
				<g>
					<path class="st13" d="M522.4,567.5c2.9-0.3,5.8-0.7,8.7-1c2.2-0.3,2.3-3.8,0-3.5c-2.9,0.3-5.8,0.7-8.7,1
						C520.2,564.2,520.1,567.8,522.4,567.5L522.4,567.5z"/>
				</g>
			</g>
			<g>
				<g>
					<path class="st13" d="M530,574.5c2.3,0,2.3-3.5,0-3.5S527.7,574.5,530,574.5L530,574.5z"/>
				</g>
			</g>
		</g>
	</g>
	<g>
		<g>
			<g>
				<g>
					<g class="st1">
						<g class="st1">
							<g>
								<g>
									<defs>
										<path id="SVGID_5_" d="M691,227.5l0.2,27.5c0.3,36.3-12.7,73.1-40.2,104.9c-68.6,79.4-201.1,97.5-295.9,40.5
											c-56.9-34.2-87.4-87.7-87.8-142.1l-0.2-27.5c0.5,54.4,30.9,107.9,87.8,142.1c94.9,57,227.4,38.9,295.9-40.5
											C678.3,300.6,691.3,263.8,691,227.5z"/>
									</defs>
									<clipPath id="SVGID_6_">
										<use xlink:href="#SVGID_5_"  style="overflow:visible;"/>
									</clipPath>
									<g class="st14">
										<path class="st3" d="M691,227.5l0.2,27.5c0,1.3,0,2.6,0,3.8l-0.2-27.5C691,230,691,228.8,691,227.5"/>
										<path class="st4" d="M691,231.3l0.2,27.5c-0.6,35.1-13.7,70.4-40.2,101c-11.4,13.2-24.6,24.7-39,34.5l-0.2-27.5
											c14.5-9.7,27.6-21.3,39-34.5C677.3,301.7,690.4,266.4,691,231.3"/>
										<path class="st3" d="M611.8,366.8l0.2,27.5c-12.8,8.6-26.6,15.9-41.1,21.7l-0.2-27.5C585.2,382.7,599,375.4,611.8,366.8"
											/>
										<path class="st5" d="M570.7,388.5l0.2,27.5c-13.2,5.3-27,9.5-41.2,12.4l-0.2-27.5C543.6,397.9,557.5,393.8,570.7,388.5"/>
										<path class="st6" d="M529.5,400.9l0.2,27.5c-15.5,3.2-31.5,5-47.5,5.2l-0.2-27.5C498,405.8,514,404.1,529.5,400.9"/>
										<path class="st7" d="M482,406.1l0.2,27.5c-44,0.7-88.7-10.1-127.1-33.2c-56.9-34.2-87.4-87.7-87.8-142.1l-0.2-27.5
											c0.5,54.4,30.9,107.9,87.8,142.1C393.4,396,438,406.7,482,406.1"/>
									</g>
								</g>
							</g>
						</g>
						<g>
							
								<ellipse transform="matrix(1 -8.365483e-03 8.365483e-03 1 -1.8998 4.0161)" class="st8" cx="479.1" cy="229.1" rx="212" ry="177"/>
						</g>
					</g>
				</g>
			</g>
			<g class="st9">
				<g>
					<g class="st1">
						<g class="st1">
							<g>
								<g>
									<defs>
										<path id="SVGID_7_" d="M704.5,251.8l0.2,27.5c0.3,38.6-13.5,77.7-42.7,111.5c-72.9,84.4-213.8,103.7-314.7,43.1
											c-60.5-36.4-92.9-93.2-93.4-151.1l-0.2-27.5c0.5,57.9,32.9,114.7,93.4,151.1C448,467,588.9,447.7,661.8,363.3
											C690.9,329.5,704.8,290.4,704.5,251.8z"/>
									</defs>
									<clipPath id="SVGID_8_">
										<use xlink:href="#SVGID_7_"  style="overflow:visible;"/>
									</clipPath>
									<g class="st15">
										<path class="st3" d="M704.5,251.8l0.2,27.5c0,1.4,0,2.7,0,4.1l-0.2-27.5C704.5,254.5,704.5,253.2,704.5,251.8"/>
										<path class="st4" d="M704.4,255.9l0.2,27.5c-0.7,37.3-14.6,74.8-42.7,107.4c-12.1,14-26.1,26.3-41.5,36.6l-0.2-27.5
											c15.4-10.4,29.4-22.6,41.5-36.6C689.9,330.7,703.8,293.2,704.4,255.9"/>
										<path class="st3" d="M620.2,399.9l0.2,27.5c-13.6,9.2-28.3,16.9-43.7,23.1l-0.2-27.5C591.9,416.8,606.6,409.1,620.2,399.9
											"/>
										<path class="st5" d="M576.5,423l0.2,27.5c-14.1,5.7-28.8,10.1-43.8,13.2l-0.2-27.5C547.7,433.1,562.4,428.7,576.5,423"/>
										<path class="st6" d="M532.7,436.2l0.2,27.5c-16.5,3.4-33.5,5.3-50.5,5.5l-0.2-27.5C499.2,441.4,516.2,439.6,532.7,436.2"
											/>
										<path class="st7" d="M482.2,441.7l0.2,27.5c-46.8,0.7-94.3-10.7-135.2-35.3c-60.5-36.4-92.9-93.2-93.4-151.1l-0.2-27.5
											c0.5,57.9,32.9,114.7,93.4,151.1C387.9,431,435.4,442.4,482.2,441.7"/>
									</g>
								</g>
							</g>
						</g>
						<g>
							<path class="st8" d="M611.1,100.7c100.9,60.6,123.6,178.2,50.6,262.6S447.9,467,347,406.4s-123.6-178.2-50.6-262.6
								S510.2,40.1,611.1,100.7z"/>
						</g>
					</g>
				</g>
			</g>
		</g>
		<g>
			<polyline class="st16" points="427.6,112.7 332.9,227.9 426.9,342.2 			"/>
			<polyline class="st16" points="536.6,342.2 631.3,227.1 537.2,112.7 			"/>
			<line class="st17" x1="428.9" y1="208.5" x2="479.9" y2="208.5"/>
			<line class="st17" x1="423.4" y1="167.3" x2="448.9" y2="167.3"/>
			<line class="st17" x1="444.8" y1="231.4" x2="488.8" y2="231.4"/>
			<line class="st18" x1="492.3" y1="248.2" x2="554.1" y2="248.2"/>
			<line class="st18" x1="491.1" y1="269.5" x2="555.4" y2="269.5"/>
			<line class="st17" x1="458.9" y1="293" x2="534.9" y2="293"/>
			<linearGradient id="SVGID_9_" gradientUnits="userSpaceOnUse" x1="462.9" y1="167.3" x2="496.9" y2="167.3">
				<stop  offset="0" style="stop-color:#D400A6"/>
				<stop  offset="0.1028" style="stop-color:#D604AF"/>
				<stop  offset="0.2738" style="stop-color:#DB10C9"/>
				<stop  offset="0.4905" style="stop-color:#E324F2"/>
				<stop  offset="0.5521" style="stop-color:#E62AFF"/>
				<stop  offset="0.8652" style="stop-color:#DD6AFF"/>
				<stop  offset="0.9944" style="stop-color:#EC94FF"/>
			</linearGradient>
			<line class="st19" x1="462.9" y1="167.3" x2="496.9" y2="167.3"/>
			<linearGradient id="SVGID_10_" gradientUnits="userSpaceOnUse" x1="502.0535" y1="231.4" x2="541.0535" y2="231.4">
				<stop  offset="0" style="stop-color:#D400A6"/>
				<stop  offset="0.1028" style="stop-color:#D604AF"/>
				<stop  offset="0.2738" style="stop-color:#DB10C9"/>
				<stop  offset="0.4905" style="stop-color:#E324F2"/>
				<stop  offset="0.5521" style="stop-color:#E62AFF"/>
				<stop  offset="0.8652" style="stop-color:#DD6AFF"/>
				<stop  offset="0.9944" style="stop-color:#EC94FF"/>
			</linearGradient>
			<line class="st20" x1="502.1" y1="231.4" x2="541.1" y2="231.4"/>
			<linearGradient id="SVGID_11_" gradientUnits="userSpaceOnUse" x1="446.7" y1="269.5" x2="479.2" y2="269.5">
				<stop  offset="0" style="stop-color:#D400A6"/>
				<stop  offset="0.1028" style="stop-color:#D604AF"/>
				<stop  offset="0.2738" style="stop-color:#DB10C9"/>
				<stop  offset="0.4905" style="stop-color:#E324F2"/>
				<stop  offset="0.5521" style="stop-color:#E62AFF"/>
				<stop  offset="0.8652" style="stop-color:#DD6AFF"/>
				<stop  offset="0.9944" style="stop-color:#EC94FF"/>
			</linearGradient>
			<line class="st21" x1="446.7" y1="269.5" x2="479.2" y2="269.5"/>
			<linearGradient id="SVGID_12_" gradientUnits="userSpaceOnUse" x1="427.4" y1="251.4" x2="481.4" y2="251.4">
				<stop  offset="0" style="stop-color:#D400A6"/>
				<stop  offset="0.1028" style="stop-color:#D604AF"/>
				<stop  offset="0.2738" style="stop-color:#DB10C9"/>
				<stop  offset="0.4905" style="stop-color:#E324F2"/>
				<stop  offset="0.5521" style="stop-color:#E62AFF"/>
				<stop  offset="0.8652" style="stop-color:#DD6AFF"/>
				<stop  offset="0.9944" style="stop-color:#EC94FF"/>
			</linearGradient>
			<line class="st22" x1="427.4" y1="251.4" x2="481.4" y2="251.4"/>
			<linearGradient id="SVGID_13_" gradientUnits="userSpaceOnUse" x1="496.4" y1="208.5" x2="537.4" y2="208.5">
				<stop  offset="0" style="stop-color:#D400A6"/>
				<stop  offset="0.1028" style="stop-color:#D604AF"/>
				<stop  offset="0.2738" style="stop-color:#DB10C9"/>
				<stop  offset="0.4905" style="stop-color:#E324F2"/>
				<stop  offset="0.5521" style="stop-color:#E62AFF"/>
				<stop  offset="0.8652" style="stop-color:#DD6AFF"/>
				<stop  offset="0.9944" style="stop-color:#EC94FF"/>
			</linearGradient>
			<line class="st23" x1="496.4" y1="208.5" x2="537.4" y2="208.5"/>
			<linearGradient id="SVGID_14_" gradientUnits="userSpaceOnUse" x1="484.4" y1="185.6" x2="525.4" y2="185.6">
				<stop  offset="0" style="stop-color:#D400A6"/>
				<stop  offset="0.1028" style="stop-color:#D604AF"/>
				<stop  offset="0.2738" style="stop-color:#DB10C9"/>
				<stop  offset="0.4905" style="stop-color:#E324F2"/>
				<stop  offset="0.5521" style="stop-color:#E62AFF"/>
				<stop  offset="0.8652" style="stop-color:#DD6AFF"/>
				<stop  offset="0.9944" style="stop-color:#EC94FF"/>
			</linearGradient>
			<line class="st24" x1="484.4" y1="185.6" x2="525.4" y2="185.6"/>
			<linearGradient id="SVGID_15_" gradientUnits="userSpaceOnUse" x1="435.7" y1="185.6" x2="473.2" y2="185.6">
				<stop  offset="0" style="stop-color:#D400A6"/>
				<stop  offset="0.1028" style="stop-color:#D604AF"/>
				<stop  offset="0.2738" style="stop-color:#DB10C9"/>
				<stop  offset="0.4905" style="stop-color:#E324F2"/>
				<stop  offset="0.5521" style="stop-color:#E62AFF"/>
				<stop  offset="0.8652" style="stop-color:#DD6AFF"/>
				<stop  offset="0.9944" style="stop-color:#EC94FF"/>
			</linearGradient>
			<line class="st25" x1="435.7" y1="185.6" x2="473.2" y2="185.6"/>
		</g>
	</g>
	<g>
		<g>
			<g>
				<g>
					<g class="st1">
						<g class="st1">
							<g>
								<g>
									<defs>
										<path id="SVGID_16_" d="M1624.4,656.7l0.2,27.5c0.3,36.3-12.7,73.1-40.2,104.8c-68.6,79.4-201.1,97.5-295.9,40.5
											c-56.9-34.2-87.4-87.7-87.8-142.1l-0.2-27.5c0.5,54.4,30.9,107.9,87.8,142.1c94.9,57,227.4,38.9,295.9-40.5
											C1611.6,729.8,1624.7,693.1,1624.4,656.7z"/>
									</defs>
									<clipPath id="SVGID_17_">
										<use xlink:href="#SVGID_16_"  style="overflow:visible;"/>
									</clipPath>
									<g class="st26">
										<path class="st3" d="M1624.4,656.7l0.2,27.5c0,1.3,0,2.6,0,3.8l-0.2-27.5C1624.4,659.3,1624.4,658,1624.4,656.7"/>
										<path class="st4" d="M1624.4,660.6l0.2,27.5c-0.6,35.1-13.7,70.4-40.2,101c-11.4,13.2-24.6,24.7-39,34.5l-0.2-27.5
											c14.5-9.7,27.6-21.3,39-34.5C1610.7,730.9,1623.8,695.6,1624.4,660.6"/>
										<path class="st3" d="M1545.2,796l0.2,27.5c-12.8,8.6-26.6,15.9-41.1,21.7l-0.2-27.5C1518.5,811.9,1532.4,804.7,1545.2,796
											"/>
										<path class="st5" d="M1504,817.7l0.2,27.5c-13.2,5.3-27,9.5-41.2,12.4l-0.2-27.5C1477,827.2,1490.8,823.1,1504,817.7"/>
										<path class="st6" d="M1462.8,830.1l0.2,27.5c-15.5,3.2-31.5,5-47.5,5.2l-0.2-27.5C1431.4,835.1,1447.3,833.3,1462.8,830.1
											"/>
										<path class="st7" d="M1415.4,835.3l0.2,27.5c-44,0.7-88.7-10.1-127.1-33.2c-56.9-34.2-87.4-87.7-87.8-142.1l-0.2-27.5
											c0.5,54.4,30.9,107.9,87.8,142.1C1326.7,825.2,1371.3,836,1415.4,835.3"/>
									</g>
								</g>
							</g>
						</g>
						<g>
							<path class="st8" d="M1536.6,514.6c94.9,57,116.2,167.6,47.6,246.9c-68.6,79.4-201.1,97.5-295.9,40.5
								c-94.9-57-116.2-167.6-47.6-247C1309.2,475.8,1441.7,457.6,1536.6,514.6z"/>
						</g>
					</g>
				</g>
			</g>
			<g class="st9">
				<g>
					<g class="st1">
						<g class="st1">
							<g>
								<g>
									<defs>
										<path id="SVGID_18_" d="M1637.8,681.2l0.2,27.5c0.3,38.6-13.5,77.7-42.7,111.5c-72.9,84.4-213.8,103.7-314.7,43.1
											c-60.5-36.4-92.9-93.2-93.4-151.1l-0.2-27.5c0.5,57.9,32.9,114.7,93.4,151.1c100.9,60.6,241.8,41.3,314.7-43.1
											C1624.3,758.9,1638.1,719.8,1637.8,681.2z"/>
									</defs>
									<clipPath id="SVGID_19_">
										<use xlink:href="#SVGID_18_"  style="overflow:visible;"/>
									</clipPath>
									<g class="st27">
										<path class="st3" d="M1637.8,681.2l0.2,27.5c0,1.4,0,2.7,0,4.1l-0.2-27.5C1637.8,683.9,1637.8,682.5,1637.8,681.2"/>
										<path class="st4" d="M1637.8,685.3l0.2,27.5c-0.7,37.3-14.6,74.8-42.7,107.4c-12.1,14-26.1,26.3-41.5,36.6l-0.2-27.5
											c15.4-10.4,29.4-22.6,41.5-36.6C1623.2,760.1,1637.1,722.6,1637.8,685.3"/>
										<path class="st3" d="M1553.6,829.3l0.2,27.5c-13.6,9.2-28.3,16.9-43.7,23.1l-0.2-27.5
											C1525.3,846.2,1540,838.5,1553.6,829.3"/>
										<path class="st5" d="M1509.8,852.4l0.2,27.5c-14.1,5.7-28.8,10.1-43.8,13.2l-0.2-27.5
											C1481.1,862.4,1495.8,858.1,1509.8,852.4"/>
										<path class="st6" d="M1466,865.6l0.2,27.5c-16.5,3.4-33.5,5.3-50.5,5.5l-0.2-27.5C1432.6,870.8,1449.5,869,1466,865.6"/>
										<path class="st7" d="M1415.6,871.1l0.2,27.5c-46.8,0.7-94.3-10.7-135.2-35.3c-60.5-36.4-92.9-93.2-93.4-151.1l-0.2-27.5
											c0.5,57.9,32.9,114.7,93.4,151.1C1321.3,860.3,1368.7,871.8,1415.6,871.1"/>
									</g>
								</g>
							</g>
						</g>
						<g>
							<path class="st8" d="M1544.4,530.1c100.9,60.6,123.6,178.2,50.6,262.6s-213.8,103.7-314.7,43.1
								c-100.9-60.6-123.6-178.2-50.7-262.6S1443.6,469.5,1544.4,530.1z"/>
						</g>
					</g>
				</g>
			</g>
		</g>
		<g>
			<rect x="1270.4" y="540.1" class="st28" width="284.2" height="195"/>
			<line class="st28" x1="1412.5" y1="735.1" x2="1412.5" y2="789.8"/>
			<line class="st28" x1="1313.5" y1="789.8" x2="1511.6" y2="789.8"/>
			<g>
				<polyline class="st29" points="1336.7,626.9 1367.4,651 1408,613.7 1420.7,637.6 1364.7,667 1336.7,643 				"/>
				<circle class="st30" cx="1427.5" cy="616.5" r="32.6"/>
				<circle class="st31" cx="1427.5" cy="616.5" r="27"/>
				<circle class="st32" cx="1365.5" cy="656.7" r="13.2"/>
				<circle class="st33" cx="1365.5" cy="656.7" r="9.3"/>
				<path class="st34" d="M1488.4,648.3c-5.9,41.9-44.7,71-86.6,65.1c-24.7-3.5-44.9-18.4-56.2-38.6c-7.9-14.1-11.3-30.8-8.9-48
					c5.9-41.9,44.7-71,86.6-65.1C1465.1,567.7,1494.3,606.4,1488.4,648.3z"/>
			</g>
		</g>
	</g>
	<g>
		<g>
			<g>
				<g>
					<g class="st1">
						<g class="st1">
							<g>
								<g>
									<defs>
										<path id="SVGID_20_" d="M1624.4,227.5l0.2,27.5c0.3,36.3-12.7,73.1-40.2,104.9c-68.6,79.4-201.1,97.5-295.9,40.5
											c-56.9-34.2-87.4-87.7-87.8-142.1l-0.2-27.5c0.5,54.4,30.9,107.9,87.8,142.1c94.9,57,227.4,38.9,295.9-40.5
											C1611.6,300.6,1624.7,263.8,1624.4,227.5z"/>
									</defs>
									<clipPath id="SVGID_21_">
										<use xlink:href="#SVGID_20_"  style="overflow:visible;"/>
									</clipPath>
									<g class="st35">
										<path class="st3" d="M1624.4,227.5l0.2,27.5c0,1.3,0,2.6,0,3.8l-0.2-27.5C1624.4,230.1,1624.4,228.8,1624.4,227.5"/>
										<path class="st4" d="M1624.4,231.4l0.2,27.5c-0.6,35.1-13.7,70.4-40.2,101c-11.4,13.2-24.6,24.7-39,34.5l-0.2-27.5
											c14.5-9.7,27.6-21.3,39-34.5C1610.7,301.7,1623.8,266.4,1624.4,231.4"/>
										<path class="st3" d="M1545.2,366.8l0.2,27.5c-12.8,8.6-26.6,15.9-41.1,21.7l-0.2-27.5
											C1518.6,382.7,1532.4,375.5,1545.2,366.8"/>
										<path class="st5" d="M1504,388.5l0.2,27.5c-13.2,5.3-27,9.5-41.2,12.4l-0.2-27.5C1477,398,1490.8,393.8,1504,388.5"/>
										<path class="st6" d="M1462.9,400.9l0.2,27.5c-15.5,3.2-31.5,5-47.5,5.2l-0.2-27.5C1431.4,405.9,1447.3,404.1,1462.9,400.9
											"/>
										<path class="st7" d="M1415.4,406.1l0.2,27.5c-44,0.7-88.7-10.1-127.1-33.2c-56.9-34.2-87.4-87.7-87.8-142.1l-0.2-27.5
											c0.5,54.4,30.9,107.9,87.8,142.1C1326.7,396,1371.3,406.7,1415.4,406.1"/>
									</g>
								</g>
							</g>
						</g>
						<g>
							
								<ellipse transform="matrix(1 -8.365480e-03 8.365480e-03 1 -1.868 11.8238)" class="st8" cx="1412.4" cy="229.2" rx="212" ry="177"/>
						</g>
					</g>
				</g>
			</g>
			<g class="st9">
				<g>
					<g class="st1">
						<g class="st1">
							<g>
								<g>
									<defs>
										<path id="SVGID_22_" d="M1637.8,251.8l0.2,27.5c0.3,38.6-13.5,77.7-42.7,111.5c-72.9,84.4-213.8,103.7-314.7,43.1
											c-60.5-36.4-92.9-93.2-93.4-151.1l-0.2-27.5c0.5,57.9,32.9,114.8,93.4,151.1c100.9,60.6,241.8,41.3,314.7-43.1
											C1624.3,329.6,1638.1,290.5,1637.8,251.8z"/>
									</defs>
									<clipPath id="SVGID_23_">
										<use xlink:href="#SVGID_22_"  style="overflow:visible;"/>
									</clipPath>
									<g class="st36">
										<path class="st3" d="M1637.8,251.8l0.2,27.5c0,1.4,0,2.7,0,4.1l-0.2-27.5C1637.8,254.6,1637.8,253.2,1637.8,251.8"/>
										<path class="st4" d="M1637.8,255.9l0.2,27.5c-0.7,37.3-14.6,74.8-42.7,107.4c-12.1,14-26.1,26.3-41.5,36.6l-0.2-27.5
											c15.4-10.4,29.4-22.6,41.5-36.6C1623.2,330.8,1637.1,293.2,1637.8,255.9"/>
										<path class="st3" d="M1553.6,400l0.2,27.5c-13.6,9.2-28.3,16.9-43.7,23.1l-0.2-27.5C1525.3,416.9,1540,409.2,1553.6,400"
											/>
										<path class="st5" d="M1509.8,423.1l0.2,27.5c-14.1,5.7-28.8,10.1-43.8,13.2l-0.2-27.5
											C1481.1,433.1,1495.8,428.7,1509.8,423.1"/>
										<path class="st6" d="M1466,436.2l0.2,27.5c-16.5,3.4-33.5,5.3-50.5,5.5l-0.2-27.5C1432.6,441.5,1449.5,439.6,1466,436.2"
											/>
										<path class="st7" d="M1415.6,441.7l0.2,27.5c-46.8,0.7-94.3-10.7-135.2-35.3c-60.5-36.4-92.9-93.2-93.4-151.1l-0.2-27.5
											c0.5,57.9,32.9,114.8,93.4,151.1C1321.3,431,1368.7,442.4,1415.6,441.7"/>
									</g>
								</g>
							</g>
						</g>
						<g>
							<path class="st8" d="M1544.4,100.7c100.9,60.6,123.6,178.2,50.6,262.6c-72.9,84.4-213.8,103.7-314.7,43.1
								s-123.6-178.2-50.7-262.6C1302.7,59.4,1443.6,40.1,1544.4,100.7z"/>
						</g>
					</g>
				</g>
			</g>
		</g>
		<path class="st37" d="M1239.6,226c0,56.8,76.2,102.9,170.1,102.9c61.8,0,163.5,0,145.7-49.7c-66.9-17.4-15.8-66.5,24.4-53.2
			c31.5-46.9-76.2-102.9-170.1-102.9C1315.8,123.1,1239.6,169.1,1239.6,226z"/>
		<path class="st38" d="M1274.7,227.1c0,0-1.2-15.8,4.4-12.7s14.4-19.8,10.6,0s23.7,17.4,18.1,22.2s-16.2,14.3-23.1,5.5
			c-7.5,1.6-8.7,0.8-14.4-4.8C1264.7,231.8,1274.7,227.1,1274.7,227.1z"/>
		<path class="st39" d="M1301.2,177.6c0,0-1.2-15.8,4.4-12.7s14.4-19.8,10.6,0s23.7,17.4,18.1,22.2s-16.2,14.3-23.1,5.5
			c-7.5,1.6-8.7,0.8-14.4-4.8C1291.2,182.3,1301.2,177.6,1301.2,177.6z"/>
		<path class="st40" d="M1483.8,172.9c0,0-1.2-15.8,4.4-12.7s14.4-19.8,10.6,0s23.7,17.4,18.1,22.2s-16.2,14.3-23.1,5.5
			c-7.5,1.6-8.7,0.8-14.4-4.8C1473.8,177.7,1483.8,172.9,1483.8,172.9z"/>
		<path class="st41" d="M1358.7,157.9c0,0-1.2-15.8,4.4-12.7s14.4-19.8,10.6,0s23.7,17.4,18.1,22.2s-16.2,14.3-23.1,5.5
			c-7.5,1.6-8.7,0.8-14.4-4.8C1348.7,162.7,1358.7,157.9,1358.7,157.9z"/>
		<path class="st42" d="M1421.3,162.9c0,0-1.2-15.8,4.4-12.7s14.4-19.8,10.6,0s23.7,17.4,18.1,22.2s-16.2,14.3-23.1,5.5
			c-7.5,1.6-8.7,0.8-14.4-4.8C1411.3,167.6,1421.3,162.9,1421.3,162.9z"/>
		
			<ellipse transform="matrix(0.8193 -0.5734 0.5734 0.8193 108.2024 895.9266)" class="st43" cx="1475.4" cy="276.3" rx="22.3" ry="14.7"/>
		<g>
			<path class="st44" d="M1534.4,205.5c0,0-105.9,58.4-187,56.9l-6.6-9.9C1381.4,236.8,1526,207.5,1534.4,205.5z"/>
			<line class="st45" x1="1303" y1="268.4" x2="1322.9" y2="263.2"/>
			<line class="st45" x1="1304.7" y1="271.6" x2="1323.6" y2="266.7"/>
			<line class="st45" x1="1306.1" y1="275.8" x2="1324.8" y2="270.7"/>
			<line class="st45" x1="1299.1" y1="263.8" x2="1319.2" y2="259.8"/>
			<polygon class="st46" points="1347.6,262.8 1311.2,283.5 1294.7,258.7 1339.3,250.3 1340.8,252.6 1347.4,262.5 			"/>
		</g>
	</g>
	<g>
		<g>
			<path class="st47" d="M1013.4,492.5c0,110.2-130.5,199.5-291.5,199.5c0-82,0-270,0-399C882.9,293,1013.4,382.3,1013.4,492.5z"/>
		</g>
		<g>
			<circle class="st48" cx="1017.4" cy="498.5" r="199.5"/>
		</g>
		<g>
			<path class="st49" d="M817.9,498.5c0,63,29.2,119.1,74.8,155.7c73.1-36.2,120.7-95.2,120.7-161.7c0-63.6-43.5-120.3-111.3-156.8
				C851.1,371.8,817.9,431.3,817.9,498.5z"/>
		</g>
		<g>
			<ellipse class="st50" cx="1093.9" cy="492" rx="15" ry="31"/>
		</g>
		<g>
			<ellipse class="st50" cx="915.9" cy="493" rx="15" ry="31"/>
		</g>
	</g>
	<rect x="890.7" y="628.5" class="st51" width="190.8" height="120.3"/>
	<g class="st1">
		<path d="M963.1,715.2h-8c-0.9,0-1.7-0.2-2.2-0.7c-0.6-0.5-1-1.1-1.3-1.8l-7.2-18.5h-34.4l-7.2,18.5c-0.3,0.6-0.7,1.2-1.3,1.7
			c-0.6,0.5-1.4,0.7-2.2,0.7h-8l30.7-76.7h10.5L963.1,715.2z M912.8,686.7h28.6l-12-31.2c-0.8-1.9-1.6-4.3-2.3-7.2
			c-0.4,1.5-0.8,2.8-1.2,4s-0.7,2.3-1.1,3.2L912.8,686.7z"/>
		<path d="M980.2,638.8c0.4,0.2,1,0.7,1.5,1.4l44.4,57.8c-0.1-0.9-0.2-1.8-0.2-2.7c0-0.9-0.1-1.7-0.1-2.5v-54.3h9.1v76.7h-5.2
			c-0.8,0-1.5-0.1-2.1-0.4s-1.1-0.8-1.6-1.4l-44.4-57.7c0.1,0.9,0.1,1.8,0.2,2.6c0,0.9,0.1,1.6,0.1,2.4v54.6h-9.1v-76.7h5.3
			C979,638.5,979.7,638.6,980.2,638.8z"/>
	</g>
	<rect x="1108.9" y="628.5" class="st51" width="103.8" height="120.3"/>
	<g class="st1">
		<path d="M1180.4,715.2H1170v-34.9h-41.3v34.9h-10.4v-76.7h10.4v34.2h41.3v-34.2h10.4V715.2z"/>
	</g>
</g>
</svg>
